<?xml version="1.0" encoding="utf-8"?>
<svg viewBox="87.884 276.16 130.577 121.528" xmlns="http://www.w3.org/2000/svg">
  <path d="M 107.2895527915805 276.16009382426466 C 108.1630668076206 300.8152444689435 106.91944279769147 325.2771461167507 106.33894348144531 349.90869140625 C 106.14600488654268 358.0953948276563 106.01176052633576 366.30840611373793 106.3039779663086 374.49554443359375 C 106.34163547017307 375.5506053257418 107.53682467584242 387.55584716796875 106.7774429321289 387.55584716796875" style="stroke: rgb(0, 0, 0); paint-order: fill; fill-opacity: 0; fill: none; vector-effect: non-scaling-stroke;"/>
  <path d="M 134.83103607913336 277.1305083176445 C 137.90547863966952 311.15864535875556 137.34617614746094 348.80500363027835 137.34617614746094 382.4571228027344" style="stroke: rgb(0, 0, 0); paint-order: fill; fill-opacity: 0; fill: none; vector-effect: non-scaling-stroke;"/>
  <path d="M 163.4368568871331 278.0070491651492 C 162.24364923341227 306.66278349625077 164.22837802925315 335.66730805670073 163.76708984375 364.4058837890625 C 163.64361552082795 372.09842023767465 164.08642129549239 379.43304136500217 164.98849487304688 387.04730224609375 C 165.06712095838358 387.7109726391849 166.5025576153229 397.6880798339844 165.61532592773438 397.6880798339844" style="stroke: rgb(0, 0, 0); paint-order: fill; fill-opacity: 0; fill: none; vector-effect: non-scaling-stroke;"/>
  <path d="M 192.3288293571186 276.6190920033332 C 193.47820310041917 302.10000799338917 191.96268379018736 327.50631982849234 192.18714904785156 352.979736328125 C 192.26595899381692 361.9234748771561 196.09266868644227 382.2703046055819 192.80491638183594 392.1435546875" style="stroke: rgb(0, 0, 0); paint-order: fill; fill-opacity: 0; fill: none; vector-effect: non-scaling-stroke;"/>
  <path d="M 87.88373198358074 345.0286596092713 C 118.40719870721118 343.36258374998005 148.987944519477 341.1709453302094 179.27012634277344 336.9655456542969 C 189.98316476445618 335.4777860017898 208.31076894547948 336.740364211867 218.4610137939453 331.658935546875" style="stroke: rgb(0, 0, 0); paint-order: fill; fill-opacity: 0; fill: none; vector-effect: non-scaling-stroke;"/>
</svg>